<svg width="100" height="100" viewBox="0 0 100 100" fill="none" xmlns="http://www.w3.org/2000/svg">
<path d="M26 36C26 34.3431 27.3431 33 29 33H59C60.6569 33 62 34.3431 62 36V48.1397C62 48.4448 62.0465 48.7481 62.138 49.0392L64.2803 55.8556C65.0742 58.3816 62.445 60.6225 60.0767 59.4384L54.2334 56.5167C53.8169 56.3084 53.3575 56.2 52.8918 56.2H29C27.3431 56.2 26 54.8569 26 53.2V36Z" stroke="black" stroke-width="5"/>
<path d="M63.8334 66.9167L69.6767 69.8384C72.045 71.0225 74.6742 68.7816 73.8803 66.2556L71.738 59.4392C71.6465 59.1481 71.6 58.8448 71.6 58.5397V46.4C71.6 44.7432 70.2569 43.4 68.6 43.4H38.6C36.9431 43.4 35.6 44.7432 35.6 46.4V63.6C35.6 65.2569 36.9431 66.6 38.6 66.6H62.4918C62.9575 66.6 63.4169 66.7085 63.8334 66.9167Z" stroke="black" stroke-width="5"/>
</svg>
