<svg width="100" height="100" viewBox="0 0 100 100" fill="none" xmlns="http://www.w3.org/2000/svg">
<path d="M67.2054 38.85C64.8271 38.85 62.6682 39.9235 61.2716 41.5588C59.8648 43.2061 59.1837 45.4978 59.9599 47.8264C60.0425 48.0741 60.1256 48.3308 60.2107 48.594L60.214 48.604C60.6746 50.0271 61.1966 51.6401 61.9981 52.9085C62.4999 53.7029 63.1547 54.4448 64.0478 54.9815C64.9507 55.5242 66.0027 55.8001 67.2054 55.8001C68.4081 55.8001 69.46 55.5242 70.3629 54.9815C71.256 54.4448 71.9108 53.7029 72.4127 52.9085C73.2141 51.6401 73.7362 50.0271 74.1967 48.604L74.2 48.594C74.2852 48.3308 74.3683 48.0741 74.4508 47.8264C75.227 45.4978 74.546 43.2061 73.1392 41.5588C71.7425 39.9235 69.5836 38.85 67.2054 38.85ZM62.9679 46.8237C62.5956 45.707 62.8833 44.5539 63.6827 43.618C64.4925 42.6697 65.7785 42.0207 67.2054 42.0207C68.6322 42.0207 69.9182 42.6697 70.7281 43.618C71.5274 44.5539 71.8151 45.707 71.4428 46.8237C71.3411 47.1289 71.2449 47.4239 71.1521 47.7083L71.1521 47.7084C70.6806 49.1537 70.3007 50.315 69.7321 51.215C69.4178 51.7124 69.0904 52.047 68.7296 52.2639C68.3786 52.4748 67.9051 52.6294 67.2054 52.6294C66.5056 52.6294 66.0321 52.4748 65.6811 52.2639C65.3204 52.047 64.9929 51.7124 64.6786 51.215C64.11 50.315 63.7301 49.1537 63.2587 47.7084L63.2585 47.708C63.1658 47.4237 63.0696 47.1288 62.9679 46.8237Z" fill="black" stroke="black" stroke-width="0.3"/>
<path d="M80.4107 68.1329C80.4107 61.157 74.6693 58.9467 66.9183 58.9467C63.5556 58.9467 60.6792 59.3627 58.5001 60.4034" stroke="black" stroke-width="3.5" stroke-linecap="round"/>
<path fill-rule="evenodd" clip-rule="evenodd" d="M28.2685 61.1305C25.6389 62.7876 24.0001 65.4387 24.0001 70.0461C24.0001 71.4268 22.8808 72.5461 21.5001 72.5461C20.1193 72.5461 19.0001 71.4268 19.0001 70.0461C19.0001 63.9796 21.3145 59.6027 25.6029 56.9004C29.6693 54.3379 35.1933 53.4902 41.2661 53.4902C47.3471 53.4902 53.052 54.3416 57.3101 56.8647C61.7855 59.5165 64.4106 63.87 64.4106 70.0461C64.4106 71.4268 63.2913 72.5461 61.9106 72.5461C60.5299 72.5461 59.4106 71.4268 59.4106 70.0461C59.4106 65.5483 57.6433 62.8739 54.7613 61.1662C51.6621 59.3299 47.0447 58.4902 41.2661 58.4902C35.4793 58.4902 31.1203 59.3335 28.2685 61.1305Z" fill="black"/>
<path fill-rule="evenodd" clip-rule="evenodd" d="M41.7055 27C38.1354 27 34.8953 28.6118 32.8008 31.0643C30.692 33.5335 29.6787 36.9577 30.837 40.4326C30.9637 40.8128 31.0912 41.2065 31.2214 41.609C31.9296 43.7968 32.7211 46.2423 33.9319 48.1587C34.6862 49.3526 35.6644 50.4584 36.9924 51.2565C38.3339 52.0627 39.9016 52.4762 41.7055 52.4762C43.5094 52.4762 45.0771 52.0627 46.4186 51.2565C47.7466 50.4584 48.7248 49.3526 49.4791 48.1587C50.6899 46.2423 51.4815 43.7968 52.1896 41.609C52.3198 41.2065 52.4473 40.8128 52.574 40.4326C53.7323 36.9577 52.719 33.5335 50.6102 31.0643C48.5157 28.6118 45.2756 27 41.7055 27ZM36.1409 33.9169C34.8735 35.4008 34.4054 37.2476 35.0041 39.0436C35.1594 39.5097 35.3065 39.9605 35.4485 40.3959C36.167 42.5984 36.7568 44.4063 37.6453 45.8126C38.1398 46.5953 38.6646 47.1367 39.2551 47.4916C39.832 47.8384 40.5983 48.0838 41.7055 48.0838C42.8127 48.0838 43.579 47.8384 44.156 47.4916C44.7465 47.1367 45.2712 46.5953 45.7657 45.8126C46.6542 44.4063 47.244 42.5984 47.9625 40.3958C48.1045 39.9605 48.2516 39.5097 48.407 39.0436C49.0056 37.2476 48.5375 35.4008 47.2701 33.9169C45.9884 32.4161 43.9576 31.3925 41.7055 31.3925C39.4535 31.3925 37.4226 32.4161 36.1409 33.9169Z" fill="black"/>
</svg>
